<svg width="24" height="24" viewBox="0 0 24 24" fill="none" xmlns="http://www.w3.org/2000/svg">
    <path fill-rule="evenodd" clip-rule="evenodd" d="M15.795 3.655C16.6683 2.78167 18.0842 2.78167 18.9575 3.655L20.345 5.04251C21.2183 5.91583 21.2183 7.33178 20.345 8.20511L9.34288 19.2072C9.07414 19.476 8.74136 19.6718 8.37593 19.7762L4.22174 20.9631C3.88706 21.0588 3.52686 20.9654 3.28074 20.7192C3.03462 20.4731 2.94128 20.113 3.0369 19.7783L4.22382 15.6241C4.32822 15.2587 4.52403 14.9258 4.79277 14.6571L15.795 3.655ZM17.6022 5.0104C17.4773 4.88564 17.275 4.88564 17.1503 5.0104L15.5369 6.6238L17.3762 8.46311L18.9897 6.84971C19.1144 6.72495 19.1144 6.52267 18.9897 6.39791L17.6022 5.0104ZM16.0208 9.81851L14.1815 7.9792L6.14817 16.0125C6.10979 16.0509 6.08181 16.0984 6.06689 16.1507L5.3539 18.6461L7.84934 17.9331C7.90155 17.9182 7.94908 17.8903 7.98748 17.8518L16.0208 9.81851Z" fill="currentColor"/>
</svg>